solid sx4_mov
  facet normal -0.998433 0.055961 0.000000
    outer loop
      vertex 31.091076 0.413216 8.593850
      vertex 31.102207 0.611815 -1.000000
      vertex 31.091076 0.413216 -1.000000
    endloop
  endfacet
  facet normal -0.998433 0.055961 0.000000
    outer loop
      vertex 31.102207 0.611815 8.593850
      vertex 31.102207 0.611815 -1.000000
      vertex 31.091076 0.413216 8.593850
    endloop
  endfacet
  facet normal -0.980248 0.197771 0.000000
    outer loop
      vertex 31.102207 0.611815 8.593850
      vertex 31.137178 0.785149 -1.000000
      vertex 31.102207 0.611815 -1.000000
    endloop
  endfacet
  facet normal -0.980248 0.197771 0.000000
    outer loop
      vertex 31.137178 0.785149 8.593850
      vertex 31.137178 0.785149 -1.000000
      vertex 31.102207 0.611815 8.593850
    endloop
  endfacet
  facet normal -0.591358 0.806409 0.000000
    outer loop
      vertex 31.137178 0.785149 8.593850
      vertex 31.186783 0.821525 -1.000000
      vertex 31.137178 0.785149 -1.000000
    endloop
  endfacet
  facet normal -0.591358 0.806409 0.000000
    outer loop
      vertex 31.186783 0.821525 8.593850
      vertex 31.186783 0.821525 -1.000000
      vertex 31.137178 0.785149 8.593850
    endloop
  endfacet
  facet normal -0.864004 0.503485 0.000000
    outer loop
      vertex 31.186783 0.821525 8.593850
      vertex 31.238968 0.911077 -1.000000
      vertex 31.186783 0.821525 -1.000000
    endloop
  endfacet
  facet normal -0.864004 0.503485 0.000000
    outer loop
      vertex 31.238968 0.911077 8.593850
      vertex 31.238968 0.911077 -1.000000
      vertex 31.186783 0.821525 8.593850
    endloop
  endfacet
  facet normal -0.579927 0.814668 0.000000
    outer loop
      vertex 31.238968 0.911077 8.593850
      vertex 31.369715 1.004150 -1.000000
      vertex 31.238968 0.911077 -1.000000
    endloop
  endfacet
  facet normal -0.579927 0.814668 0.000000
    outer loop
      vertex 31.369715 1.004150 8.593850
      vertex 31.369715 1.004150 -1.000000
      vertex 31.238968 0.911077 8.593850
    endloop
  endfacet
  facet normal -0.253359 0.967372 0.000000
    outer loop
      vertex 32.090969 1.193050 8.593850
      vertex 31.369715 1.004150 -1.000000
      vertex 31.369715 1.004150 8.593850
    endloop
  endfacet
  facet normal -0.253359 0.967372 0.000000
    outer loop
      vertex 32.090969 1.193050 8.593850
      vertex 32.090969 1.193050 -1.000000
      vertex 31.369715 1.004150 -1.000000
    endloop
  endfacet
  facet normal -0.341746 0.939792 0.000000
    outer loop
      vertex 32.090969 1.193050 8.593850
      vertex 32.311352 1.273190 -1.000000
      vertex 32.090969 1.193050 -1.000000
    endloop
  endfacet
  facet normal -0.341746 0.939792 0.000000
    outer loop
      vertex 32.311352 1.273190 8.593850
      vertex 32.311352 1.273190 -1.000000
      vertex 32.090969 1.193050 8.593850
    endloop
  endfacet
  facet normal -0.526736 0.850029 0.000000
    outer loop
      vertex 32.311352 1.273190 8.593850
      vertex 32.769241 1.556930 -1.000000
      vertex 32.311352 1.273190 -1.000000
    endloop
  endfacet
  facet normal -0.526736 0.850029 0.000000
    outer loop
      vertex 32.769241 1.556930 8.593850
      vertex 32.769241 1.556930 -1.000000
      vertex 32.311352 1.273190 8.593850
    endloop
  endfacet
  facet normal -0.342523 0.939509 0.000000
    outer loop
      vertex 32.769241 1.556930 8.593850
      vertex 33.043999 1.657100 -1.000000
      vertex 32.769241 1.556930 -1.000000
    endloop
  endfacet
  facet normal -0.342523 0.939509 0.000000
    outer loop
      vertex 33.043999 1.657100 8.593850
      vertex 33.043999 1.657100 -1.000000
      vertex 32.769241 1.556930 8.593850
    endloop
  endfacet
  facet normal -0.144180 0.989551 0.000000
    outer loop
      vertex 33.043999 1.657100 8.593850
      vertex 33.476181 1.720070 -1.000000
      vertex 33.043999 1.657100 -1.000000
    endloop
  endfacet
  facet normal -0.144180 0.989551 0.000000
    outer loop
      vertex 33.476181 1.720070 8.593850
      vertex 33.476181 1.720070 -1.000000
      vertex 33.043999 1.657100 8.593850
    endloop
  endfacet
  facet normal -0.022220 0.999753 0.000000
    outer loop
      vertex 33.991360 1.731520 8.593850
      vertex 33.476181 1.720070 -1.000000
      vertex 33.476181 1.720070 8.593850
    endloop
  endfacet
  facet normal -0.022220 0.999753 0.000000
    outer loop
      vertex 33.991360 1.731520 8.593850
      vertex 33.991360 1.731520 -1.000000
      vertex 33.476181 1.720070 -1.000000
    endloop
  endfacet
  facet normal 0.078025 0.996951 0.000000
    outer loop
      vertex 33.991360 1.731520 8.593850
      vertex 34.649651 1.680000 -1.000000
      vertex 33.991360 1.731520 -1.000000
    endloop
  endfacet
  facet normal 0.078025 0.996951 0.000000
    outer loop
      vertex 34.649651 1.680000 8.593850
      vertex 34.649651 1.680000 -1.000000
      vertex 33.991360 1.731520 8.593850
    endloop
  endfacet
  facet normal 0.166107 0.986108 0.000000
    outer loop
      vertex 34.649651 1.680000 8.593850
      vertex 34.764820 1.660600 -1.000000
      vertex 34.649651 1.680000 -1.000000
    endloop
  endfacet
  facet normal 0.166107 0.986108 0.000000
    outer loop
      vertex 34.764820 1.660600 8.593850
      vertex 34.764820 1.660600 -1.000000
      vertex 34.649651 1.680000 8.593850
    endloop
  endfacet
  facet normal 0.993408 0.114633 0.000000
    outer loop
      vertex 34.764820 1.660600 8.593850
      vertex 34.772579 1.593360 -1.000000
      vertex 34.764820 1.660600 -1.000000
    endloop
  endfacet
  facet normal 0.993408 0.114633 0.000000
    outer loop
      vertex 34.772579 1.593360 8.593850
      vertex 34.772579 1.593360 -1.000000
      vertex 34.764820 1.660600 8.593850
    endloop
  endfacet
  facet normal 0.761656 0.647982 0.000000
    outer loop
      vertex 34.980980 1.348400 8.593850
      vertex 34.772579 1.593360 -1.000000
      vertex 34.772579 1.593360 8.593850
    endloop
  endfacet
  facet normal 0.761656 0.647982 0.000000
    outer loop
      vertex 34.980980 1.348400 8.593850
      vertex 34.980980 1.348400 -1.000000
      vertex 34.772579 1.593360 -1.000000
    endloop
  endfacet
  facet normal 0.823444 0.567398 0.000000
    outer loop
      vertex 34.980980 1.348400 8.593850
      vertex 35.138298 1.120090 -1.000000
      vertex 34.980980 1.348400 -1.000000
    endloop
  endfacet
  facet normal 0.823444 0.567398 0.000000
    outer loop
      vertex 35.138298 1.120090 8.593850
      vertex 35.138298 1.120090 -1.000000
      vertex 34.980980 1.348400 8.593850
    endloop
  endfacet
  facet normal 0.948679 -0.316242 0.000000
    outer loop
      vertex 35.109520 1.033760 8.593850
      vertex 35.138298 1.120090 -1.000000
      vertex 35.138298 1.120090 8.593850
    endloop
  endfacet
  facet normal 0.948679 -0.316242 0.000000
    outer loop
      vertex 35.109520 1.033760 8.593850
      vertex 35.109520 1.033760 -1.000000
      vertex 35.138298 1.120090 -1.000000
    endloop
  endfacet
  facet normal 0.987552 0.157294 0.000000
    outer loop
      vertex 35.109520 1.033760 8.593850
      vertex 35.144051 0.816963 -1.000000
      vertex 35.109520 1.033760 -1.000000
    endloop
  endfacet
  facet normal 0.987552 0.157294 0.000000
    outer loop
      vertex 35.144051 0.816963 8.593850
      vertex 35.144051 0.816963 -1.000000
      vertex 35.109520 1.033760 8.593850
    endloop
  endfacet
  facet normal 0.335000 0.942218 0.000000
    outer loop
      vertex 35.144051 0.816963 8.593850
      vertex 35.230389 0.786266 -1.000000
      vertex 35.144051 0.816963 -1.000000
    endloop
  endfacet
  facet normal 0.335000 0.942218 0.000000
    outer loop
      vertex 35.230389 0.786266 8.593850
      vertex 35.230389 0.786266 -1.000000
      vertex 35.144051 0.816963 8.593850
    endloop
  endfacet
  facet normal 0.992966 0.118397 0.000000
    outer loop
      vertex 35.230389 0.786266 8.593850
      vertex 35.267899 0.471680 -1.000000
      vertex 35.230389 0.786266 -1.000000
    endloop
  endfacet
  facet normal 0.992966 0.118397 0.000000
    outer loop
      vertex 35.267899 0.471680 8.593850
      vertex 35.267899 0.471680 -1.000000
      vertex 35.230389 0.786266 8.593850
    endloop
  endfacet
  facet normal 0.393921 -0.919144 0.000000
    outer loop
      vertex 35.267899 0.471680 8.593850
      vertex 35.173889 0.431390 -1.000000
      vertex 35.267899 0.471680 -1.000000
    endloop
  endfacet
  facet normal 0.393921 -0.919144 0.000000
    outer loop
      vertex 35.173889 0.431390 8.593850
      vertex 35.173889 0.431390 -1.000000
      vertex 35.267899 0.471680 8.593850
    endloop
  endfacet
  facet normal 0.171432 -0.985196 0.000000
    outer loop
      vertex 35.173889 0.431390 8.593850
      vertex 34.889839 0.381963 -1.000000
      vertex 35.173889 0.431390 -1.000000
    endloop
  endfacet
  facet normal 0.171432 -0.985196 0.000000
    outer loop
      vertex 34.889839 0.381963 8.593850
      vertex 34.889839 0.381963 -1.000000
      vertex 35.173889 0.431390 8.593850
    endloop
  endfacet
  facet normal -0.863768 -0.503890 -0.000000
    outer loop
      vertex 34.889839 0.381963 8.593850
      vertex 34.830059 0.484438 -1.000000
      vertex 34.889839 0.381963 -1.000000
    endloop
  endfacet
  facet normal -0.863768 -0.503890 -0.000000
    outer loop
      vertex 34.830059 0.484438 8.593850
      vertex 34.830059 0.484438 -1.000000
      vertex 34.889839 0.381963 8.593850
    endloop
  endfacet
  facet normal -0.247381 -0.968918 -0.000000
    outer loop
      vertex 34.830059 0.484438 8.593850
      vertex 34.629379 0.535675 -1.000000
      vertex 34.830059 0.484438 -1.000000
    endloop
  endfacet
  facet normal -0.247381 -0.968918 -0.000000
    outer loop
      vertex 34.629379 0.535675 8.593850
      vertex 34.629379 0.535675 -1.000000
      vertex 34.830059 0.484438 8.593850
    endloop
  endfacet
  facet normal 0.022218 -0.999753 0.000000
    outer loop
      vertex 34.629379 0.535675 8.593850
      vertex 34.437241 0.531405 -1.000000
      vertex 34.629379 0.535675 -1.000000
    endloop
  endfacet
  facet normal 0.022218 -0.999753 0.000000
    outer loop
      vertex 34.437241 0.531405 8.593850
      vertex 34.437241 0.531405 -1.000000
      vertex 34.629379 0.535675 8.593850
    endloop
  endfacet
  facet normal 0.459681 -0.888084 0.000000
    outer loop
      vertex 34.437241 0.531405 8.593850
      vertex 34.206951 0.412205 -1.000000
      vertex 34.437241 0.531405 -1.000000
    endloop
  endfacet
  facet normal 0.459681 -0.888084 0.000000
    outer loop
      vertex 34.206951 0.412205 8.593850
      vertex 34.206951 0.412205 -1.000000
      vertex 34.437241 0.531405 8.593850
    endloop
  endfacet
  facet normal -0.017881 -0.999840 -0.000000
    outer loop
      vertex 34.206951 0.412205 8.593850
      vertex 33.809341 0.419316 -1.000000
      vertex 34.206951 0.412205 -1.000000
    endloop
  endfacet
  facet normal -0.017881 -0.999840 -0.000000
    outer loop
      vertex 33.809341 0.419316 8.593850
      vertex 33.809341 0.419316 -1.000000
      vertex 34.206951 0.412205 8.593850
    endloop
  endfacet
  facet normal -0.104576 -0.994517 0.000000
    outer loop
      vertex 33.596088 0.441740 8.593850
      vertex 33.809341 0.419316 -1.000000
      vertex 33.809341 0.419316 8.593850
    endloop
  endfacet
  facet normal -0.104576 -0.994517 -0.000000
    outer loop
      vertex 33.596088 0.441740 8.593850
      vertex 33.596088 0.441740 -1.000000
      vertex 33.809341 0.419316 -1.000000
    endloop
  endfacet
  facet normal 0.016665 -0.999861 0.000000
    outer loop
      vertex 33.083721 0.433200 8.593850
      vertex 33.596088 0.441740 -1.000000
      vertex 33.596088 0.441740 8.593850
    endloop
  endfacet
  facet normal 0.016665 -0.999861 0.000000
    outer loop
      vertex 33.083721 0.433200 8.593850
      vertex 33.083721 0.433200 -1.000000
      vertex 33.596088 0.441740 -1.000000
    endloop
  endfacet
  facet normal 0.023220 -0.999730 0.000000
    outer loop
      vertex 32.405190 0.417440 8.593850
      vertex 33.083721 0.433200 -1.000000
      vertex 33.083721 0.433200 8.593850
    endloop
  endfacet
  facet normal 0.023220 -0.999730 0.000000
    outer loop
      vertex 32.405190 0.417440 8.593850
      vertex 32.405190 0.417440 -1.000000
      vertex 33.083721 0.433200 -1.000000
    endloop
  endfacet
  facet normal 0.256432 -0.966562 0.000000
    outer loop
      vertex 32.405190 0.417440 8.593850
      vertex 32.124699 0.343025 -1.000000
      vertex 32.405190 0.417440 -1.000000
    endloop
  endfacet
  facet normal 0.256432 -0.966562 0.000000
    outer loop
      vertex 32.124699 0.343025 8.593850
      vertex 32.124699 0.343025 -1.000000
      vertex 32.405190 0.417440 8.593850
    endloop
  endfacet
  facet normal 0.018552 -0.999828 0.000000
    outer loop
      vertex 32.124699 0.343025 8.593850
      vertex 31.558445 0.332518 -1.000000
      vertex 32.124699 0.343025 -1.000000
    endloop
  endfacet
  facet normal 0.018552 -0.999828 0.000000
    outer loop
      vertex 31.558445 0.332518 8.593850
      vertex 31.558445 0.332518 -1.000000
      vertex 32.124699 0.343025 8.593850
    endloop
  endfacet
  facet normal -0.170147 -0.985419 -0.000000
    outer loop
      vertex 31.558445 0.332518 8.593850
      vertex 31.091076 0.413216 -1.000000
      vertex 31.558445 0.332518 -1.000000
    endloop
  endfacet
  facet normal -0.170147 -0.985419 -0.000000
    outer loop
      vertex 31.091076 0.413216 8.593850
      vertex 31.091076 0.413216 -1.000000
      vertex 31.558445 0.332518 8.593850
    endloop
  endfacet
  facet normal -0.000000 -0.000000 -1.000000
    outer loop
      vertex 34.764820 1.660600 -1.000000
      vertex 34.772579 1.593360 -1.000000
      vertex 34.649651 1.680000 -1.000000
    endloop
  endfacet
  facet normal 0.000000 0.000000 -1.000000
    outer loop
      vertex 34.980980 1.348400 -1.000000
      vertex 35.138298 1.120090 -1.000000
      vertex 35.109520 1.033760 -1.000000
    endloop
  endfacet
  facet normal 0.000000 -0.000000 -1.000000
    outer loop
      vertex 35.230389 0.786266 -1.000000
      vertex 35.267899 0.471680 -1.000000
      vertex 35.173889 0.431390 -1.000000
    endloop
  endfacet
  facet normal 0.000000 0.000000 -1.000000
    outer loop
      vertex 35.144051 0.816963 -1.000000
      vertex 35.230389 0.786266 -1.000000
      vertex 35.173889 0.431390 -1.000000
    endloop
  endfacet
  facet normal 0.000000 -0.000000 -1.000000
    outer loop
      vertex 35.144051 0.816963 -1.000000
      vertex 35.173889 0.431390 -1.000000
      vertex 34.830059 0.484438 -1.000000
    endloop
  endfacet
  facet normal 0.000000 0.000000 -1.000000
    outer loop
      vertex 34.830059 0.484438 -1.000000
      vertex 35.173889 0.431390 -1.000000
      vertex 34.889839 0.381963 -1.000000
    endloop
  endfacet
  facet normal 0.000000 -0.000000 -1.000000
    outer loop
      vertex 35.109520 1.033760 -1.000000
      vertex 35.144051 0.816963 -1.000000
      vertex 34.629379 0.535675 -1.000000
    endloop
  endfacet
  facet normal 0.000000 -0.000000 -1.000000
    outer loop
      vertex 34.980980 1.348400 -1.000000
      vertex 35.109520 1.033760 -1.000000
      vertex 34.629379 0.535675 -1.000000
    endloop
  endfacet
  facet normal 0.000000 0.000000 -1.000000
    outer loop
      vertex 35.144051 0.816963 -1.000000
      vertex 34.830059 0.484438 -1.000000
      vertex 34.629379 0.535675 -1.000000
    endloop
  endfacet
  facet normal 0.000000 -0.000000 -1.000000
    outer loop
      vertex 34.772579 1.593360 -1.000000
      vertex 34.980980 1.348400 -1.000000
      vertex 34.437241 0.531405 -1.000000
    endloop
  endfacet
  facet normal 0.000000 0.000000 -1.000000
    outer loop
      vertex 33.991360 1.731520 -1.000000
      vertex 34.649651 1.680000 -1.000000
      vertex 34.437241 0.531405 -1.000000
    endloop
  endfacet
  facet normal 0.000000 -0.000000 -1.000000
    outer loop
      vertex 34.649651 1.680000 -1.000000
      vertex 34.772579 1.593360 -1.000000
      vertex 34.437241 0.531405 -1.000000
    endloop
  endfacet
  facet normal 0.000000 0.000000 -1.000000
    outer loop
      vertex 34.980980 1.348400 -1.000000
      vertex 34.629379 0.535675 -1.000000
      vertex 34.437241 0.531405 -1.000000
    endloop
  endfacet
  facet normal 0.000000 0.000000 -1.000000
    outer loop
      vertex 34.437241 0.531405 -1.000000
      vertex 34.206951 0.412205 -1.000000
      vertex 33.809341 0.419316 -1.000000
    endloop
  endfacet
  facet normal 0.000000 -0.000000 -1.000000
    outer loop
      vertex 33.991360 1.731520 -1.000000
      vertex 34.437241 0.531405 -1.000000
      vertex 33.809341 0.419316 -1.000000
    endloop
  endfacet
  facet normal 0.000000 0.000000 -1.000000
    outer loop
      vertex 33.476181 1.720070 -1.000000
      vertex 33.991360 1.731520 -1.000000
      vertex 33.596088 0.441740 -1.000000
    endloop
  endfacet
  facet normal 0.000000 0.000000 -1.000000
    outer loop
      vertex 33.043999 1.657100 -1.000000
      vertex 33.476181 1.720070 -1.000000
      vertex 33.596088 0.441740 -1.000000
    endloop
  endfacet
  facet normal 0.000000 0.000000 -1.000000
    outer loop
      vertex 33.991360 1.731520 -1.000000
      vertex 33.809341 0.419316 -1.000000
      vertex 33.596088 0.441740 -1.000000
    endloop
  endfacet
  facet normal 0.000000 0.000000 -1.000000
    outer loop
      vertex 32.769241 1.556930 -1.000000
      vertex 33.043999 1.657100 -1.000000
      vertex 33.083721 0.433200 -1.000000
    endloop
  endfacet
  facet normal 0.000000 0.000000 -1.000000
    outer loop
      vertex 32.311352 1.273190 -1.000000
      vertex 32.769241 1.556930 -1.000000
      vertex 33.083721 0.433200 -1.000000
    endloop
  endfacet
  facet normal 0.000000 0.000000 -1.000000
    outer loop
      vertex 33.043999 1.657100 -1.000000
      vertex 33.596088 0.441740 -1.000000
      vertex 33.083721 0.433200 -1.000000
    endloop
  endfacet
  facet normal 0.000000 0.000000 -1.000000
    outer loop
      vertex 32.090969 1.193050 -1.000000
      vertex 32.311352 1.273190 -1.000000
      vertex 32.405190 0.417440 -1.000000
    endloop
  endfacet
  facet normal 0.000000 0.000000 -1.000000
    outer loop
      vertex 32.311352 1.273190 -1.000000
      vertex 33.083721 0.433200 -1.000000
      vertex 32.405190 0.417440 -1.000000
    endloop
  endfacet
  facet normal 0.000000 0.000000 -1.000000
    outer loop
      vertex 32.090969 1.193050 -1.000000
      vertex 32.405190 0.417440 -1.000000
      vertex 32.124699 0.343025 -1.000000
    endloop
  endfacet
  facet normal 0.000000 -0.000000 -1.000000
    outer loop
      vertex 31.238968 0.911077 -1.000000
      vertex 31.369715 1.004150 -1.000000
      vertex 31.186783 0.821525 -1.000000
    endloop
  endfacet
  facet normal 0.000000 0.000000 -1.000000
    outer loop
      vertex 31.369715 1.004150 -1.000000
      vertex 32.090969 1.193050 -1.000000
      vertex 31.558445 0.332518 -1.000000
    endloop
  endfacet
  facet normal 0.000000 -0.000000 -1.000000
    outer loop
      vertex 32.090969 1.193050 -1.000000
      vertex 32.124699 0.343025 -1.000000
      vertex 31.558445 0.332518 -1.000000
    endloop
  endfacet
  facet normal 0.000000 0.000000 -1.000000
    outer loop
      vertex 31.186783 0.821525 -1.000000
      vertex 31.369715 1.004150 -1.000000
      vertex 31.558445 0.332518 -1.000000
    endloop
  endfacet
  facet normal 0.000000 -0.000000 -1.000000
    outer loop
      vertex 31.137178 0.785149 -1.000000
      vertex 31.186783 0.821525 -1.000000
      vertex 31.102207 0.611815 -1.000000
    endloop
  endfacet
  facet normal 0.000000 -0.000000 -1.000000
    outer loop
      vertex 31.186783 0.821525 -1.000000
      vertex 31.558445 0.332518 -1.000000
      vertex 31.102207 0.611815 -1.000000
    endloop
  endfacet
  facet normal 0.000000 -0.000000 -1.000000
    outer loop
      vertex 31.102207 0.611815 -1.000000
      vertex 31.558445 0.332518 -1.000000
      vertex 31.091076 0.413216 -1.000000
    endloop
  endfacet
  facet normal 0.000000 0.000000 1.000000
    outer loop
      vertex 34.764820 1.660600 8.593850
      vertex 34.649651 1.680000 8.593850
      vertex 34.772579 1.593360 8.593850
    endloop
  endfacet
  facet normal 0.000000 0.000000 1.000000
    outer loop
      vertex 34.980980 1.348400 8.593850
      vertex 35.109520 1.033760 8.593850
      vertex 35.138298 1.120090 8.593850
    endloop
  endfacet
  facet normal 0.000000 0.000000 1.000000
    outer loop
      vertex 35.230389 0.786266 8.593850
      vertex 35.173889 0.431390 8.593850
      vertex 35.267899 0.471680 8.593850
    endloop
  endfacet
  facet normal 0.000000 0.000000 1.000000
    outer loop
      vertex 35.144051 0.816963 8.593850
      vertex 35.173889 0.431390 8.593850
      vertex 35.230389 0.786266 8.593850
    endloop
  endfacet
  facet normal 0.000000 0.000000 1.000000
    outer loop
      vertex 35.144051 0.816963 8.593850
      vertex 34.830059 0.484438 8.593850
      vertex 35.173889 0.431390 8.593850
    endloop
  endfacet
  facet normal 0.000000 0.000000 1.000000
    outer loop
      vertex 34.830059 0.484438 8.593850
      vertex 34.889839 0.381963 8.593850
      vertex 35.173889 0.431390 8.593850
    endloop
  endfacet
  facet normal 0.000000 0.000000 1.000000
    outer loop
      vertex 35.109520 1.033760 8.593850
      vertex 34.629379 0.535675 8.593850
      vertex 35.144051 0.816963 8.593850
    endloop
  endfacet
  facet normal 0.000000 0.000000 1.000000
    outer loop
      vertex 34.980980 1.348400 8.593850
      vertex 34.629379 0.535675 8.593850
      vertex 35.109520 1.033760 8.593850
    endloop
  endfacet
  facet normal 0.000000 0.000000 1.000000
    outer loop
      vertex 35.144051 0.816963 8.593850
      vertex 34.629379 0.535675 8.593850
      vertex 34.830059 0.484438 8.593850
    endloop
  endfacet
  facet normal 0.000000 0.000000 1.000000
    outer loop
      vertex 34.772579 1.593360 8.593850
      vertex 34.437241 0.531405 8.593850
      vertex 34.980980 1.348400 8.593850
    endloop
  endfacet
  facet normal 0.000000 0.000000 1.000000
    outer loop
      vertex 33.991360 1.731520 8.593850
      vertex 34.437241 0.531405 8.593850
      vertex 34.649651 1.680000 8.593850
    endloop
  endfacet
  facet normal 0.000000 0.000000 1.000000
    outer loop
      vertex 34.649651 1.680000 8.593850
      vertex 34.437241 0.531405 8.593850
      vertex 34.772579 1.593360 8.593850
    endloop
  endfacet
  facet normal 0.000000 0.000000 1.000000
    outer loop
      vertex 34.980980 1.348400 8.593850
      vertex 34.437241 0.531405 8.593850
      vertex 34.629379 0.535675 8.593850
    endloop
  endfacet
  facet normal 0.000000 0.000000 1.000000
    outer loop
      vertex 34.437241 0.531405 8.593850
      vertex 33.809341 0.419316 8.593850
      vertex 34.206951 0.412205 8.593850
    endloop
  endfacet
  facet normal 0.000000 0.000000 1.000000
    outer loop
      vertex 33.991360 1.731520 8.593850
      vertex 33.809341 0.419316 8.593850
      vertex 34.437241 0.531405 8.593850
    endloop
  endfacet
  facet normal -0.000000 0.000000 1.000000
    outer loop
      vertex 33.476181 1.720070 8.593850
      vertex 33.596088 0.441740 8.593850
      vertex 33.991360 1.731520 8.593850
    endloop
  endfacet
  facet normal -0.000000 0.000000 1.000000
    outer loop
      vertex 33.043999 1.657100 8.593850
      vertex 33.596088 0.441740 8.593850
      vertex 33.476181 1.720070 8.593850
    endloop
  endfacet
  facet normal 0.000000 0.000000 1.000000
    outer loop
      vertex 33.991360 1.731520 8.593850
      vertex 33.596088 0.441740 8.593850
      vertex 33.809341 0.419316 8.593850
    endloop
  endfacet
  facet normal -0.000000 0.000000 1.000000
    outer loop
      vertex 32.769241 1.556930 8.593850
      vertex 33.083721 0.433200 8.593850
      vertex 33.043999 1.657100 8.593850
    endloop
  endfacet
  facet normal -0.000000 0.000000 1.000000
    outer loop
      vertex 32.311352 1.273190 8.593850
      vertex 33.083721 0.433200 8.593850
      vertex 32.769241 1.556930 8.593850
    endloop
  endfacet
  facet normal 0.000000 0.000000 1.000000
    outer loop
      vertex 33.043999 1.657100 8.593850
      vertex 33.083721 0.433200 8.593850
      vertex 33.596088 0.441740 8.593850
    endloop
  endfacet
  facet normal -0.000000 0.000000 1.000000
    outer loop
      vertex 32.090969 1.193050 8.593850
      vertex 32.405190 0.417440 8.593850
      vertex 32.311352 1.273190 8.593850
    endloop
  endfacet
  facet normal 0.000000 0.000000 1.000000
    outer loop
      vertex 32.311352 1.273190 8.593850
      vertex 32.405190 0.417440 8.593850
      vertex 33.083721 0.433200 8.593850
    endloop
  endfacet
  facet normal 0.000000 0.000000 1.000000
    outer loop
      vertex 32.090969 1.193050 8.593850
      vertex 32.124699 0.343025 8.593850
      vertex 32.405190 0.417440 8.593850
    endloop
  endfacet
  facet normal -0.000000 0.000000 1.000000
    outer loop
      vertex 31.238968 0.911077 8.593850
      vertex 31.186783 0.821525 8.593850
      vertex 31.369715 1.004150 8.593850
    endloop
  endfacet
  facet normal -0.000000 0.000000 1.000000
    outer loop
      vertex 31.369715 1.004150 8.593850
      vertex 31.558445 0.332518 8.593850
      vertex 32.090969 1.193050 8.593850
    endloop
  endfacet
  facet normal 0.000000 0.000000 1.000000
    outer loop
      vertex 32.090969 1.193050 8.593850
      vertex 31.558445 0.332518 8.593850
      vertex 32.124699 0.343025 8.593850
    endloop
  endfacet
  facet normal -0.000000 0.000000 1.000000
    outer loop
      vertex 31.186783 0.821525 8.593850
      vertex 31.558445 0.332518 8.593850
      vertex 31.369715 1.004150 8.593850
    endloop
  endfacet
  facet normal -0.000000 0.000000 1.000000
    outer loop
      vertex 31.137178 0.785149 8.593850
      vertex 31.102207 0.611815 8.593850
      vertex 31.186783 0.821525 8.593850
    endloop
  endfacet
  facet normal 0.000000 0.000000 1.000000
    outer loop
      vertex 31.186783 0.821525 8.593850
      vertex 31.102207 0.611815 8.593850
      vertex 31.558445 0.332518 8.593850
    endloop
  endfacet
  facet normal 0.000000 0.000000 1.000000
    outer loop
      vertex 31.102207 0.611815 8.593850
      vertex 31.091076 0.413216 8.593850
      vertex 31.558445 0.332518 8.593850
    endloop
  endfacet
endsolid Mesh
